<?xml version="1.0" standalone="no"?>
<!DOCTYPE svg PUBLIC "-//W3C//DTD SVG 20010904//EN"
 "http://www.w3.org/TR/2001/REC-SVG-20010904/DTD/svg10.dtd">
<svg version="1.0" xmlns="http://www.w3.org/2000/svg"
 width="300" height="314" viewBox="0 0 300 314"
 preserveAspectRatio="xMidYMid meet">
<metadata>
Created by potrace 1.10, written by Peter Selinger 2001-2011
</metadata>
<g transform="translate(0.000000,314.000000) scale(0.100000,-0.100000)"
fill="#FFD2A4" stroke="none">
<path d="M1524 2752 c-6 -4 -19 -41 -29 -82 -18 -75 -32 -112 -86 -227 -33
-70 -69 -176 -69 -204 0 -12 -5 -16 -15 -13 -8 4 -15 12 -15 20 0 7 -10 18
-22 25 -17 9 -20 9 -15 -2 90 -207 89 -317 -8 -624 -82 -262 -89 -309 -56
-380 26 -57 70 -94 130 -110 59 -15 101 -8 167 30 72 42 129 140 160 274 17
72 13 134 -11 181 -17 33 -35 39 -35 13 -1 -15 -4 -13 -21 7 -12 14 -33 39
-47 55 -15 17 -40 48 -56 70 -16 22 -40 51 -52 63 l-23 24 9 -32 c9 -33 43
-83 92 -135 85 -90 103 -160 74 -274 -9 -35 -14 -73 -10 -83 7 -24 -35 -97
-76 -128 -40 -31 -62 -38 -126 -39 -57 -1 -101 22 -138 72 -27 37 -26 143 2
242 25 86 81 254 92 276 11 21 29 156 32 227 1 55 12 76 23 43 10 -32 157
-178 208 -205 67 -36 77 -32 25 10 -78 64 -179 168 -204 209 -13 22 -30 69
-39 103 -15 57 -15 67 0 125 8 34 40 114 69 177 65 137 68 146 75 230 l6 65
37 -57 c54 -83 74 -127 93 -199 22 -82 16 -143 -25 -284 -47 -161 -41 -262 20
-355 9 -14 31 -56 49 -95 18 -38 39 -82 47 -97 24 -45 13 -52 -27 -17 -34 30
-69 52 -74 48 -2 -3 29 -39 70 -82 41 -44 81 -97 92 -122 22 -54 38 -53 37 3
0 30 -19 79 -67 174 -72 144 -97 223 -97 305 0 61 29 156 66 215 30 47 27 71
-5 37 -32 -34 -68 -108 -86 -175 -8 -32 -17 -59 -19 -62 -17 -16 6 150 32 242
18 60 32 133 32 161 0 66 -17 159 -30 163 -6 2 -10 10 -10 17 0 24 -71 144
-97 165 -28 22 -33 23 -49 12z"/>
<path d="M1410 2733 c-41 -14 -130 -144 -130 -189 0 -23 -15 -16 -44 21 -16
19 -34 35 -41 35 -11 0 -52 -57 -51 -70 1 -3 -9 -19 -22 -37 -29 -41 -54 -100
-57 -138 -3 -33 28 -115 44 -115 5 0 12 -8 15 -17 6 -18 55 -47 64 -38 2 2
-14 25 -37 51 -22 26 -46 63 -52 83 -12 41 -7 58 51 160 16 30 30 64 30 77 0
40 17 35 33 -9 33 -89 33 -86 -12 -208 -17 -48 -18 -62 -9 -95 7 -21 11 -43 9
-48 -1 -5 5 -4 13 4 9 7 16 9 17 4 0 -5 3 -18 6 -29 14 -48 2 -127 -27 -188
-62 -127 -70 -132 -74 -47 -3 55 -24 130 -37 130 -4 0 -12 12 -18 28 -9 22
-91 84 -91 68 0 -2 16 -23 36 -47 89 -106 99 -183 45 -328 -20 -55 -31 -103
-31 -137 0 -64 16 -79 25 -25 8 50 50 137 109 228 78 122 96 167 96 254 0 42
-6 97 -14 122 -7 25 -11 49 -8 52 4 3 -1 3 -11 0 -16 -7 -16 -4 -1 41 20 61
34 151 28 173 -4 11 -2 11 6 -3 21 -33 44 -56 55 -56 5 0 32 22 58 48 48 48
77 116 77 183 0 33 -29 69 -50 62z m11 -120 c-11 -39 -82 -145 -103 -152 -7
-2 -9 16 -6 57 3 46 11 70 34 102 16 23 40 57 54 77 l25 36 3 -41 c2 -22 -2
-58 -7 -79z"/>
<path d="M1802 2217 c-46 -110 43 -345 200 -528 66 -78 123 -179 155 -274 23
-70 27 -96 27 -215 1 -157 -11 -205 -82 -345 -54 -104 -166 -225 -244 -263
-121 -59 -221 -46 -315 42 -55 51 -63 76 -24 76 51 0 171 112 210 196 26 55
51 148 51 189 0 39 -24 139 -46 190 -17 40 -17 40 -26 15 -53 -135 -100 -191
-195 -235 -124 -56 -127 -59 -143 -100 -17 -44 -61 -115 -72 -115 -4 0 -15 16
-24 35 -38 80 -120 118 -159 75 -10 -11 -24 -20 -32 -20 -25 0 -13 -18 17 -24
39 -7 50 -36 60 -147 9 -99 27 -144 79 -195 70 -69 165 -104 285 -104 88 0 96
10 14 17 -206 18 -346 127 -350 273 -1 49 -20 135 -34 150 -8 10 -10 21 -4 30
13 21 52 -1 86 -49 43 -61 69 -63 116 -13 21 23 38 50 38 60 0 27 48 66 113
92 69 27 159 105 189 163 19 38 21 39 34 23 14 -19 28 -128 20 -161 -2 -11 -9
-39 -14 -62 -12 -51 -48 -115 -94 -164 -36 -39 -101 -89 -116 -89 -16 0 -42
-36 -42 -57 0 -30 78 -108 134 -134 60 -28 151 -29 216 -3 93 37 207 134 257
218 35 59 97 197 111 246 34 123 15 377 -36 475 -9 17 -16 33 -17 36 -1 13
-40 79 -47 79 -5 0 -8 6 -8 13 0 6 -33 53 -73 102 -77 96 -148 222 -174 307
-8 29 -18 90 -22 137 -7 79 -8 84 -19 58z"/>
<path d="M969 2128 c-1 -7 -1 -22 0 -33 4 -53 0 -102 -13 -145 -14 -46 -104
-229 -152 -305 -13 -22 -27 -47 -31 -55 -4 -8 -10 -17 -13 -20 -4 -3 -17 -32
-29 -65 -12 -33 -26 -64 -30 -70 -11 -15 -31 -130 -36 -207 -4 -76 18 -255 34
-271 6 -6 11 -20 11 -30 0 -26 74 -161 119 -217 158 -197 369 -300 603 -295
93 2 158 12 158 24 0 3 -51 5 -112 3 -249 -8 -457 84 -616 272 -163 193 -213
465 -131 711 17 49 51 123 76 163 25 40 75 133 112 205 76 149 99 231 81 296
-11 41 -29 63 -31 39z"/>
<path d="M1383 1841 c-17 -27 -19 -119 -3 -166 13 -41 39 -84 73 -120 31 -34
68 -103 74 -137 6 -45 19 -55 27 -23 9 34 -20 99 -77 173 -71 92 -79 114 -78
209 0 45 -1 83 -2 83 -1 0 -8 -9 -14 -19z"/>
</g>
</svg>
